<svg id="_ÎÓÈ_1" data-name="—ÎÓÈ_1" xmlns="http://www.w3.org/2000/svg" viewBox="0 0 200 200"><defs><style>.cls-1{fill:#e2e2e2;}.cls-2{fill:#fff;}</style></defs><path class="cls-1" d="M200,100A100,100,0,0,1,19.3,159,100,100,0,1,1,200,100Z"/><path class="cls-2" d="M180.7,159a100,100,0,0,1-161.4,0c8.71-9,48.63-21.72,50.44-23.19s7.83-9.58,7.83-9.58H78v-9a50,50,0,0,1-5.64-8.89c-.85-1.76-1.57-5.51-2.2-10.28-7-3.22-7.87-14.44-8.17-20.73-.14-3,1.27-3.34,2.87-2.78-.74-4.1-1.26-7.83-1.06-9.41,0,0-3.91,4.73-7.07,4.53,0,0,2.42-5.32,2.79-8.57s-.09-18.92,4.66-20.39c0,0-4.94-1.68-5.13-4.63a19,19,0,0,0,5.5,1.08s-3.17-2.76-3.35-4.63c0,0,6.05,1.58,7.91.59s4.47-3.35,5.4-3.35c0,0-2.6-2.27-2.7-3.65a25.26,25.26,0,0,0,4.94,1.19c1.4,0,5.4-2.27,7.08-3.35s6.14-1.09,7.26-.5,17.13-5.71,26.21,6.26c0,0,14.81,2.37,17.46,7.09s5.17,20.25,2.38,33.11c-.34,1.56-.66,3-1,4.43,1.22-.15,2.15.51,2,3-.29,6.29-1.14,17.5-8.16,20.72-.62,4.78-1.35,8.53-2.19,10.29a50.28,50.28,0,0,1-5.81,9.1v8.83h.41s6,8.06,7.83,9.58S172,150,180.7,159Z"/></svg>