<svg width="20" height="20" viewBox="0 0 19 17" fill="none" xmlns="http://www.w3.org/2000/svg"><path d="M7.26953 1.71045H1.26953C0.855318 1.71045 0.519531 2.04624 0.519531 2.46045C0.519531 2.87466 0.855318 3.21045 1.26953 3.21045H7.26953C7.68374 3.21045 8.01953 2.87466 8.01953 2.46045C8.01953 2.04624 7.68374 1.71045 7.26953 1.71045V1.71045Z" fill="#5dcaf9"></path><path fill-rule="evenodd" clip-rule="evenodd" d="M3.17953 9.10033H1.26953C0.855318 9.10033 0.519531 8.76454 0.519531 8.35033C0.519531 7.93611 0.855318 7.60033 1.26953 7.60033H3.17953C3.54436 6.57876 4.59137 5.96791 5.66021 6.15304C6.72905 6.33817 7.50963 7.26557 7.50963 8.35033C7.50963 9.43508 6.72905 10.3625 5.66021 10.5476C4.59137 10.7327 3.54436 10.1219 3.17953 9.10033ZM5.26953 9.08033C5.6727 9.08033 5.99953 8.75349 5.99953 8.35033C5.99953 7.94716 5.6727 7.62033 5.26953 7.62033C5.07592 7.62033 4.89025 7.69724 4.75335 7.83414C4.61644 7.97104 4.53953 8.15672 4.53953 8.35033C4.53953 8.75349 4.86636 9.08033 5.26953 9.08033Z" fill="#5dcaf9"></path><path fill-rule="evenodd" clip-rule="evenodd" d="M12.9896 3.17026C12.648 3.97715 11.8656 4.50922 10.9896 4.53026V4.46026C9.83 4.4647 8.8605 3.57964 8.75955 2.42442C8.6586 1.26919 9.45988 0.229385 10.6027 0.0326173C11.7455 -0.16415 12.8484 0.547797 13.1396 1.67026C13.1828 1.66461 13.2265 1.66461 13.2696 1.67026H17.2196C17.6338 1.67026 17.9696 2.00605 17.9696 2.42026C17.9696 2.83448 17.6338 3.17026 17.2196 3.17026H13.2196C13.1432 3.17978 13.066 3.17978 12.9896 3.17026ZM11.7233 2.22723C11.7056 1.83559 11.3817 1.52789 10.9896 1.53026V1.57026C10.7888 1.57254 10.5977 1.65748 10.4615 1.80507C10.3253 1.95267 10.2558 2.14987 10.2696 2.35026C10.318 2.73931 10.665 3.02071 11.0556 2.98765C11.4463 2.95459 11.741 2.61887 11.7233 2.22723Z" fill="#5dcaf9"></path><path d="M7.27 13.8101H1.27C0.844741 13.8101 0.5 14.1548 0.5 14.5801C0.5 15.0053 0.844741 15.3501 1.27 15.3501H7.27C7.68421 15.3501 8.02 15.0143 8.02 14.6001C8.02 14.1858 7.68421 13.8501 7.27 13.8501V13.8101Z" fill="#5dcaf9"></path><path fill-rule="evenodd" clip-rule="evenodd" d="M13.3999 13.8102H17.2699V13.8502C17.6841 13.8502 18.0199 14.186 18.0199 14.6002C18.0199 15.0144 17.6841 15.3502 17.2699 15.3502H13.2699C12.8124 16.3226 11.7241 16.8277 10.6861 16.5494C9.64815 16.2711 8.95856 15.2892 9.04896 14.2184C9.13935 13.1476 9.98377 12.2952 11.0537 12.1949C12.1237 12.0945 13.1119 12.7749 13.3999 13.8102ZM10.5884 14.6866C10.7045 14.959 10.9738 15.1343 11.2699 15.1302C11.6692 15.1247 11.9899 14.7995 11.9899 14.4002C11.9899 14.104 11.8109 13.8373 11.5369 13.7249C11.2629 13.6125 10.9481 13.6768 10.7402 13.8877C10.5322 14.0985 10.4722 14.4141 10.5884 14.6866Z" fill="#5dcaf9"></path><path d="M17.2695 7.6001H9.26953C8.85532 7.6001 8.51953 7.93588 8.51953 8.3501C8.51953 8.76431 8.85532 9.1001 9.26953 9.1001H17.2695C17.6837 9.1001 18.0195 8.76431 18.0195 8.3501C18.0195 7.93588 17.6837 7.6001 17.2695 7.6001Z" fill="#5dcaf9"></path></svg>